<svg version="1.1" xmlns="http://www.w3.org/2000/svg" xmlns:xlink="http://www.w3.org/1999/xlink" width="110" height="110" viewBox="141.5,313.5,110,110"><g id="document" fill="#ffffff" fill-rule="nonzero" stroke="#000000" stroke-width="0" stroke-linecap="butt" stroke-linejoin="miter" stroke-miterlimit="10" stroke-dasharray="" stroke-dashoffset="0" font-family="none" font-weight="none" font-size="none" text-anchor="none" style="mix-blend-mode: normal"><rect x="900.45455" y="1425" transform="scale(0.15714,0.22)" width="700" height="500" id="Shape 1 1" vector-effect="non-scaling-stroke"/></g><g fill="none" fill-rule="nonzero" stroke="none" stroke-width="none" stroke-linecap="none" stroke-linejoin="none" stroke-miterlimit="10" stroke-dasharray="" stroke-dashoffset="0" font-family="none" font-weight="none" font-size="none" text-anchor="none" style="mix-blend-mode: normal"><g id="stage"><g id="layer1 1"><path d="M150.73381,391.94676c-2.20914,0 -4,-1.64346 -4,-3.67077v-67.25846c0,-2.02731 1.79086,-3.67077 4,-3.67077h90.74546c2.20914,0 4,1.64346 4,3.67077v67.25846c0,2.02731 -1.79086,3.67077 -4,3.67077z" id="Path 1" fill-opacity="0" fill="#000000" stroke="#000000" stroke-width="1" stroke-linecap="round" stroke-linejoin="round"/><text x="345.00225" y="891.15656" transform="scale(0.56529,0.45833)" id="PointText 1" fill="#000000" stroke="none" stroke-width="1" stroke-linecap="butt" stroke-linejoin="miter" font-family="font-Asimov" font-weight="normal" font-size="40" text-anchor="middle">HOLFTA</text><text x="540.95762" y="2351.9312" transform="scale(0.36052,0.17765)" id="PointText 1" fill="#000000" stroke="none" stroke-width="1" stroke-linecap="butt" stroke-linejoin="miter" font-family="font-Asimov" font-weight="normal" font-size="40" text-anchor="middle">DEVELOPER</text><path d="M155.35446,415.68878h-7.88815" id="Path 1" fill-opacity="0" fill="#000000" stroke="#000000" stroke-width="1" stroke-linecap="round" stroke-linejoin="round"/><path d="M242.58578,415.68878h-7.88815" id="Path 1" fill-opacity="0" fill="#000000" stroke="#000000" stroke-width="1" stroke-linecap="round" stroke-linejoin="round"/><path d="M173.10958,372.16494c-1.42989,0 -2.58905,-2.23858 -2.58905,-5v-25.03636c0,-2.76142 1.15916,-5 2.58905,-5h0.60127c1.42989,0 2.58905,2.23858 2.58905,5v25.03636c0,2.76142 -1.15916,5 -2.58905,5z" id="Path 1" fill-opacity="0" fill="#000000" stroke="#000000" stroke-width="6" stroke-linecap="round" stroke-linejoin="round"/><path d="M179.50438,356.26249c-1.76979,0 -3.20449,-0.59294 -3.20449,-1.32437v-0.58272c0,-0.73143 1.4347,-1.32437 3.20449,-1.32437h30.97287c1.76979,0 3.20449,0.59294 3.20449,1.32437v0.58272c0,0.73143 -1.4347,1.32437 -3.20449,1.32437z" id="Path 1" fill-opacity="0" fill="#000000" stroke="#000000" stroke-width="10" stroke-linecap="round" stroke-linejoin="round"/><path d="M216.27079,373.78067c-1.42989,0 -2.58905,-2.23858 -2.58905,-5v-25.03636c0,-2.76142 1.15916,-5 2.58905,-5h0.60127c1.42989,0 2.58905,2.23858 2.58905,5v25.03636c0,2.76142 -1.15916,5 -2.58905,5z" id="Path 1" fill-opacity="0" fill="#000000" stroke="#000000" stroke-width="6" stroke-linecap="round" stroke-linejoin="round"/><path d="M165.44674,329.87404c0,-4.00657 -3.14215,-7.25454 -7.01818,-7.25454c-3.87604,0 -7.01818,3.24797 -7.01818,7.25454c0,4.00657 3.14215,7.25454 7.01818,7.25454c3.87604,0 7.01818,-3.24797 7.01818,-7.25454z" id="Path 1" fill-opacity="0" fill="#000000" stroke="#000000" stroke-width="3" stroke-linecap="round" stroke-linejoin="round"/><path d="M165.44674,379.41948c0,-4.00657 -3.14215,-7.25454 -7.01818,-7.25454c-3.87604,0 -7.01818,3.24797 -7.01818,7.25454c0,4.00657 3.14215,7.25454 7.01818,7.25454c3.87604,0 7.01818,-3.24797 7.01818,-7.25454z" id="Path 1" fill-opacity="0" fill="#000000" stroke="#000000" stroke-width="3" stroke-linecap="round" stroke-linejoin="round"/><path d="M158.42856,338.29222v33.45733" id="Path 1" fill-opacity="0" fill="#000000" stroke="#000000" stroke-width="4" stroke-linecap="round" stroke-linejoin="round"/><path d="M231.62352,338.29222v33.45733" id="Path 1" fill-opacity="0" fill="#000000" stroke="#000000" stroke-width="4" stroke-linecap="round" stroke-linejoin="round"/><path d="M238.6417,329.87404c0,-4.00657 -3.14215,-7.25454 -7.01818,-7.25454c-3.87604,0 -7.01818,3.24797 -7.01818,7.25454c0,4.00657 3.14215,7.25454 7.01818,7.25454c3.87604,0 7.01818,-3.24797 7.01818,-7.25454z" id="Path 1" fill-opacity="0" fill="#000000" stroke="#000000" stroke-width="3" stroke-linecap="round" stroke-linejoin="round"/><path d="M238.6417,379.41948c0,-4.00657 -3.14215,-7.25454 -7.01818,-7.25454c-3.87604,0 -7.01818,3.24797 -7.01818,7.25454c0,4.00657 3.14215,7.25454 7.01818,7.25454c3.87604,0 7.01818,-3.24797 7.01818,-7.25454z" id="Path 1" fill-opacity="0" fill="#000000" stroke="#000000" stroke-width="3" stroke-linecap="round" stroke-linejoin="round"/><path d="M185.68172,326.10133c0,-2.08361 -1.61177,-3.77271 -3.6,-3.77271c-1.98822,0 -3.6,1.6891 -3.6,3.77271c0,2.08361 1.61177,3.77271 3.6,3.77271c1.98822,0 3.6,-1.6891 3.6,-3.77271z" id="Path 1" fill-opacity="0" fill="#000000" stroke="#000000" stroke-width="2" stroke-linecap="round" stroke-linejoin="round"/><path d="M211.28172,326.10133c0,-2.08361 -1.61177,-3.77271 -3.6,-3.77271c-1.98822,0 -3.6,1.6891 -3.6,3.77271c0,2.08361 1.61177,3.77271 3.6,3.77271c1.98822,0 3.6,-1.6891 3.6,-3.77271z" id="Path 1" fill-opacity="0" fill="#000000" stroke="#000000" stroke-width="2" stroke-linecap="round" stroke-linejoin="round"/><path d="M211.28172,383.19219c0,-2.08361 -1.61177,-3.77271 -3.6,-3.77271c-1.98822,0 -3.6,1.6891 -3.6,3.77271c0,2.08361 1.61177,3.77271 3.6,3.77271c1.98822,0 3.6,-1.6891 3.6,-3.77271z" id="Path 1" fill-opacity="0" fill="#000000" stroke="#000000" stroke-width="2" stroke-linecap="round" stroke-linejoin="round"/><path d="M185.68172,383.19219c0,-2.08361 -1.61177,-3.77271 -3.6,-3.77271c-1.98822,0 -3.6,1.6891 -3.6,3.77271c0,2.08361 1.61177,3.77271 3.6,3.77271c1.98822,0 3.6,-1.6891 3.6,-3.77271z" id="Path 1" fill-opacity="0" fill="#000000" stroke="#000000" stroke-width="2" stroke-linecap="round" stroke-linejoin="round"/><path d="M182.08172,329.87404v14.56362" id="Path 1" fill-opacity="0" fill="#000000" stroke="#000000" stroke-width="2" stroke-linecap="round" stroke-linejoin="round"/><path d="M207.68172,329.87404v14.56362" id="Path 1" fill-opacity="0" fill="#000000" stroke="#000000" stroke-width="2" stroke-linecap="round" stroke-linejoin="round"/><path d="M207.68172,364.85586v14.56362" id="Path 1" fill-opacity="0" fill="#000000" stroke="#000000" stroke-width="2" stroke-linecap="round" stroke-linejoin="round"/><path d="M182.08172,364.85586v14.56362" id="Path 1" fill-opacity="0" fill="#000000" stroke="#000000" stroke-width="2" stroke-linecap="round" stroke-linejoin="round"/><path d="M171.86599,329.08315c0,-0.82341 0.60238,-1.49091 1.34546,-1.49091c0.74308,0 1.34546,0.6675 1.34546,1.49091c0,0.82341 -0.60238,1.49091 -1.34546,1.49091c-0.74308,0 -1.34546,-0.6675 -1.34546,-1.49091z" id="Path 1" fill-opacity="0" fill="#000000" stroke="#000000" stroke-width="3" stroke-linecap="round" stroke-linejoin="round"/><path d="M172.06476,380.48459c0,-0.82341 0.60238,-1.49091 1.34546,-1.49091c0.74308,0 1.34546,0.6675 1.34546,1.49091c0,0.82341 -0.60238,1.49091 -1.34546,1.49091c-0.74308,0 -1.34546,-0.6675 -1.34546,-1.49091z" id="Path 1" fill-opacity="0" fill="#000000" stroke="#000000" stroke-width="3" stroke-linecap="round" stroke-linejoin="round"/><path d="M219.26235,329.08315c0,-0.82341 -0.60238,-1.49091 -1.34546,-1.49091c-0.74308,0 -1.34546,0.6675 -1.34546,1.49091c0,0.82341 0.60238,1.49091 1.34546,1.49091c0.74308,0 1.34546,-0.6675 1.34546,-1.49091z" id="Path 1" fill-opacity="0" fill="#000000" stroke="#000000" stroke-width="3" stroke-linecap="round" stroke-linejoin="round"/><path d="M219.26235,380.48459c0,-0.82341 -0.60238,-1.49091 -1.34546,-1.49091c-0.74308,0 -1.34546,0.6675 -1.34546,1.49091c0,0.82341 0.60238,1.49091 1.34546,1.49091c0.74308,0 1.34546,-0.6675 1.34546,-1.49091z" id="Path 1" fill-opacity="0" fill="#000000" stroke="#000000" stroke-width="3" stroke-linecap="round" stroke-linejoin="round"/><path d="M195.02632,330.09031c0,-0.55624 0.46816,-1.00716 1.04568,-1.00716c0.57752,0 1.04568,0.45092 1.04568,1.00716c0,0.55624 -0.46816,1.00716 -1.04568,1.00716c-0.57752,0 -1.04568,-0.45092 -1.04568,-1.00716z" id="Path 1" fill-opacity="0" fill="#000000" stroke="#000000" stroke-width="3" stroke-linecap="round" stroke-linejoin="round"/><path d="M194.01518,377.98652c0,-0.55624 0.46816,-1.00716 1.04568,-1.00716c0.57752,0 1.04568,0.45092 1.04568,1.00716c0,0.55624 -0.46816,1.00716 -1.04568,1.00716c-0.57752,0 -1.04568,-0.45092 -1.04568,-1.00716z" id="Path 1" fill-opacity="0" fill="#000000" stroke="#000000" stroke-width="3" stroke-linecap="round" stroke-linejoin="round"/><path d="M196.10654,332.13557v12.92011" id="Path 1" fill-opacity="0" fill="#000000" stroke="#000000" stroke-width="2" stroke-linecap="round" stroke-linejoin="round"/><path d="M195.02632,364.85586v12.92011" id="Path 1" fill-opacity="0" fill="#000000" stroke="#000000" stroke-width="2" stroke-linecap="round" stroke-linejoin="round"/></g></g></g></svg>